# File created by Blade
# Date/Time:  Fri Jan 16 19:00:24 2015
# Frame Rate: 120.000 fps
#------------------------------------------------------
:FULLY-SPECIFIED
:DEGREES
1559
root 17.006151 36.190087 -21.604989 -154.606581 4.376469 -173.837843
Spine -35.595673 13.244957 -0.619432
Head 9.313870 -6.950431 -0.506229
LeftShoulder -15.559790 -26.439236 14.359764
LeftArm -12.015315 -9.396100 -10.217747
LeftForeArm -2.010705 0.000000 7.503572
LeftHand -7.006029 -0.000000 4.407217
LeftHandThumb1 -26.253704 0.000000 33.147579
RightShoulder -13.027991 -8.170974 -2.608056
RightArm -1.800528 50.863239 26.401138
RightForeArm -30.878634 -0.000000 34.990034
RightHand -13.713418 -0.000000 0.747810
RightHandThumb1 -24.326973 -0.000000 -32.862282
LeftUpLeg -23.194156 11.090084 -8.989830
LeftLeg -0.768447 -0.000000 0.000000
LeftFoot -25.126470 19.803323 -20.416993
LeftToeBase 32.038527 -0.000000 -0.000000
RightUpLeg 13.623730 -8.180081 -9.771978
RightLeg 90.370996 -0.000000 -0.000000
RightFoot 33.842416 -43.163750 -12.851329
RightToeBase 23.399437 -0.000000 -0.000000
1560
root 17.008172 36.202822 -21.587763 -154.364800 4.434336 -173.761985
Spine -35.747901 13.270868 -0.632305
Head 9.144856 -6.846911 -0.514151
LeftShoulder -15.564385 -26.526302 14.443346
LeftArm -12.212095 -9.489869 -10.101146
LeftForeArm -1.822648 0.000000 7.700785
LeftHand -7.006385 -0.000000 4.409194
LeftHandThumb1 -26.253704 0.000000 33.147579
RightShoulder -13.020492 -8.080913 -2.710766
RightArm -2.121849 50.883370 26.145587
RightForeArm -30.704351 0.000000 34.935548
RightHand -13.634744 -0.000000 0.823844
RightHandThumb1 -24.326973 -0.000000 -32.862282
LeftUpLeg -23.394209 11.345563 -9.041532
LeftLeg -0.897395 -0.000000 0.000000
LeftFoot -25.085980 19.323690 -20.626922
LeftToeBase 32.424038 -0.000000 -0.000000
RightUpLeg 13.652463 -8.157634 -9.882257
RightLeg 90.610017 -0.000000 -0.000000
RightFoot 33.999099 -43.244208 -12.883077
RightToeBase 23.250272 -0.000000 -0.000000
1561
root 17.011656 36.217148 -21.573482 -154.142201 4.469817 -173.654598
Spine -35.875577 13.281675 -0.566848
Head 8.986085 -6.754479 -0.547151
LeftShoulder -15.603117 -26.578631 14.503139
LeftArm -12.392857 -9.494041 -10.006643
LeftForeArm -1.700656 -0.000000 7.896863
LeftHand -7.062636 -0.000000 4.493906
LeftHandThumb1 -26.253704 0.000000 33.147579
RightShoulder -13.019234 -7.993277 -2.835647
RightArm -2.363336 50.945095 25.955052
RightForeArm -30.633419 -0.000000 34.905626
RightHand -13.672679 -0.000000 1.005732
RightHandThumb1 -24.326973 -0.000000 -32.862282
LeftUpLeg -23.541092 11.554834 -9.023635
LeftLeg -1.069134 -0.000000 0.000000
LeftFoot -25.129618 18.835404 -20.917387
LeftToeBase 33.090266 -0.000000 -0.000000
RightUpLeg 13.707709 -8.125758 -9.924506
RightLeg 90.837582 -0.000000 -0.000000
RightFoot 34.192385 -43.194671 -13.112182
RightToeBase 23.301833 -0.000000 -0.000000
1562
root 17.014163 36.231497 -21.561430 -153.932158 4.512190 -173.568174
Spine -35.994799 13.304523 -0.550736
Head 8.805085 -6.660565 -0.574373
LeftShoulder -15.640614 -26.656224 14.596645
LeftArm -12.568080 -9.452042 -9.950375
LeftForeArm -1.627478 0.000000 8.081633
LeftHand -7.075369 -0.000000 4.543150
LeftHandThumb1 -26.253704 0.000000 33.147579
RightShoulder -13.056850 -7.965399 -2.916465
RightArm -2.592173 50.984294 25.743216
RightForeArm -30.449875 -0.000000 34.838905
RightHand -13.490878 0.000000 1.084103
RightHandThumb1 -24.326973 -0.000000 -32.862282
LeftUpLeg -23.676459 11.790362 -9.037385
LeftLeg -1.215492 -0.000000 0.000000
LeftFoot -25.170701 18.259465 -21.250097
LeftToeBase 33.473646 -0.000000 -0.000000
RightUpLeg 13.761831 -8.094928 -10.003509
RightLeg 91.049990 -0.000000 -0.000000
RightFoot 34.471577 -43.188340 -13.288146
RightToeBase 23.285340 -0.000000 -0.000000
1563
root 17.018676 36.246044 -21.550165 -153.730248 4.542618 -173.463889
Spine -36.107123 13.334342 -0.508604
Head 8.635379 -6.578261 -0.628408
LeftShoulder -15.663764 -26.651784 14.663509
LeftArm -12.735123 -9.433637 -9.916623
LeftForeArm -1.607544 -0.000000 8.267172
LeftHand -7.012682 -0.000000 4.629015
LeftHandThumb1 -26.253704 0.000000 33.147579
RightShoulder -13.082835 -8.014940 -3.002729
RightArm -2.836011 51.120943 25.561899
RightForeArm -30.343425 -0.000000 34.909638
RightHand -13.475067 -0.000000 1.453958
RightHandThumb1 -24.326973 -0.000000 -32.862282
LeftUpLeg -23.816374 12.037138 -9.035167
LeftLeg -1.342182 -0.000000 0.000000
LeftFoot -25.164142 17.703448 -21.468619
LeftToeBase 33.825518 -0.000000 -0.000000
RightUpLeg 13.813231 -8.056064 -10.049026
RightLeg 91.257940 -0.000000 -0.000000
RightFoot 34.616974 -43.194940 -13.348587
RightToeBase 23.220183 -0.000000 -0.000000
1564
root 17.022143 36.261198 -21.539375 -153.547729 4.579650 -173.368861
Spine -36.189751 13.361722 -0.473401
Head 8.433154 -6.493541 -0.644268
LeftShoulder -15.719188 -26.652915 14.731280
LeftArm -12.867068 -9.411510 -9.885616
LeftForeArm -1.509304 -0.000000 8.433525
LeftHand -7.069520 -0.000000 4.664529
LeftHandThumb1 -26.253704 0.000000 33.147579
RightShoulder -13.076915 -7.992198 -3.101903
RightArm -3.151393 51.165062 25.326610
RightForeArm -30.255704 -0.000000 34.932761
RightHand -13.570352 -0.000000 1.465724
RightHandThumb1 -24.326973 -0.000000 -32.862282
LeftUpLeg -23.913663 12.241867 -9.023260
LeftLeg -1.497083 -0.000000 0.000000
LeftFoot -25.080099 17.131567 -21.880616
LeftToeBase 33.479430 -0.000000 -0.000000
RightUpLeg 13.877181 -7.997744 -10.084643
RightLeg 91.454128 -0.000000 -0.000000
RightFoot 34.774475 -43.117558 -13.520909
RightToeBase 23.512763 -0.000000 -0.000000
1565
root 17.029080 36.275899 -21.528394 -153.369719 4.605650 -173.250754
Spine -36.268388 13.413086 -0.426521
Head 8.222452 -6.405747 -0.658846
LeftShoulder -15.720109 -26.663969 14.765937
LeftArm -13.022502 -9.341089 -9.833510
LeftForeArm -1.440585 -0.000000 8.583095
LeftHand -7.127433 -0.000000 4.594479
LeftHandThumb1 -26.253704 0.000000 33.147579
RightShoulder -13.101891 -7.938596 -3.199010
RightArm -3.514604 51.211655 25.029767
RightForeArm -30.041983 -0.000000 34.982286
RightHand -13.431029 -0.000000 1.774916
RightHandThumb1 -24.326973 -0.000000 -32.862282
LeftUpLeg -23.988952 12.411701 -8.961595
LeftLeg -1.689626 -0.000000 0.000000
LeftFoot -25.053676 16.749755 -22.113819
LeftToeBase 33.682628 -0.000000 -0.000000
RightUpLeg 13.919878 -7.930022 -10.073734
RightLeg 91.659412 -0.000000 -0.000000
RightFoot 34.867866 -42.973806 -13.587884
RightToeBase 23.377251 -0.000000 -0.000000
1566
root 17.035840 36.288554 -21.520830 -153.215769 4.633253 -173.144124
Spine -36.330188 13.459784 -0.401290
Head 8.030744 -6.296399 -0.657566
LeftShoulder -15.727110 -26.696325 14.848044
LeftArm -13.183148 -9.225731 -9.821721
LeftForeArm -1.375357 -0.000000 8.705757
LeftHand -7.138827 -0.000000 4.609695
LeftHandThumb1 -26.253704 0.000000 33.147579
RightShoulder -13.140857 -7.938603 -3.299655
RightArm -3.815453 51.278083 24.819601
RightForeArm -29.892026 -0.000000 35.007996
RightHand -13.392106 -0.000000 1.837715
RightHandThumb1 -24.326973 -0.000000 -32.862282
LeftUpLeg -24.044019 12.608517 -8.920996
LeftLeg -1.875926 -0.000000 0.000000
LeftFoot -25.031772 16.384111 -22.317807
LeftToeBase 33.855494 -0.000000 -0.000000
RightUpLeg 13.987532 -7.861784 -10.079882
RightLeg 91.838424 -0.000000 -0.000000
RightFoot 34.867008 -42.878638 -13.554191
RightToeBase 23.568305 -0.000000 -0.000000
1567
root 17.042475 36.300250 -21.514698 -153.077138 4.654358 -173.042124
Spine -36.389398 13.507632 -0.374700
Head 7.883053 -6.279628 -0.659358
LeftShoulder -15.722947 -26.720744 14.905713
LeftArm -13.315052 -9.091758 -9.800792
LeftForeArm -1.314660 -0.000000 8.782748
LeftHand -7.134025 -0.000000 4.611900
LeftHandThumb1 -26.253704 0.000000 33.147579
RightShoulder -13.149183 -7.949086 -3.411994
RightArm -4.189804 51.322089 24.565147
RightForeArm -29.750896 -0.000000 35.085232
RightHand -13.468721 0.000000 1.928120
RightHandThumb1 -24.326973 -0.000000 -32.862282
LeftUpLeg -24.071711 12.800418 -8.885176
LeftLeg -2.097913 -0.000000 0.000000
LeftFoot -25.031126 16.048821 -22.575864
LeftToeBase 34.273939 -0.000000 -0.000000
RightUpLeg 14.068637 -7.799027 -10.065349
RightLeg 91.994779 -0.000000 -0.000000
RightFoot 34.881070 -42.723134 -13.682348
RightToeBase 23.484197 -0.000000 -0.000000
1568
root 17.048039 36.311070 -21.510368 -152.968809 4.687939 -172.960783
Spine -36.410302 13.553657 -0.385684
Head 7.690229 -6.176249 -0.605679
LeftShoulder -15.748954 -26.733887 14.998120
LeftArm -13.410923 -8.963145 -9.820148
LeftForeArm -1.196627 -0.000000 8.829653
LeftHand -7.111895 -0.000000 4.629045
LeftHandThumb1 -26.253704 0.000000 33.147579
RightShoulder -13.189437 -7.911031 -3.476360
RightArm -4.527043 51.317859 24.256891
RightForeArm -29.642057 -0.000000 35.057957
RightHand -13.500496 -0.000000 1.915973
RightHandThumb1 -24.326973 -0.000000 -32.862282
LeftUpLeg -24.089405 13.056401 -8.903490
LeftLeg -2.285940 -0.000000 0.000000
LeftFoot -24.964342 15.647737 -22.778716
LeftToeBase 34.543935 -0.000000 -0.000000
RightUpLeg 14.151240 -7.740567 -10.103462
RightLeg 92.134955 -0.000000 -0.000000
RightFoot 34.887281 -42.690491 -13.651249
RightToeBase 23.485803 -0.000000 -0.000000
1569
root 17.053969 36.320601 -21.507738 -152.862409 4.724034 -172.866227
Spine -36.451475 13.602002 -0.372870
Head 7.564694 -6.070072 -0.591870
LeftShoulder -15.775084 -26.724701 15.081922
LeftArm -13.485825 -8.842951 -9.827058
LeftForeArm -1.107272 -0.000000 8.812746
LeftHand -7.078793 -0.000000 4.564488
LeftHandThumb1 -26.253704 0.000000 33.147579
RightShoulder -13.249038 -7.849459 -3.568192
RightArm -4.801698 51.306221 24.014956
RightForeArm -29.528540 -0.000000 35.080904
RightHand -13.586117 -0.000000 1.917171
RightHandThumb1 -24.326973 -0.000000 -32.862282
LeftUpLeg -24.072724 13.247213 -8.874384
LeftLeg -2.514307 -0.000000 0.000000
LeftFoot -24.870586 15.338779 -22.954178
LeftToeBase 34.785902 -0.000000 -0.000000
RightUpLeg 14.223545 -7.672255 -10.104909
RightLeg 92.251938 -0.000000 -0.000000
RightFoot 34.879997 -42.677278 -13.670141
RightToeBase 23.378449 -0.000000 -0.000000
1570
root 17.061623 36.329280 -21.506275 -152.764294 4.764750 -172.771992
Spine -36.501787 13.644336 -0.373028
Head 7.482659 -6.008812 -0.562793
LeftShoulder -15.798648 -26.716298 15.173823
LeftArm -13.548370 -8.705961 -9.830584
LeftForeArm -1.047682 -0.000000 8.752072
LeftHand -7.044744 -0.000000 4.526607
LeftHandThumb1 -26.253704 0.000000 33.147579
RightShoulder -13.261434 -7.844544 -3.635943
RightArm -5.140012 51.366941 23.716564
RightForeArm -29.456060 0.000000 35.088942
RightHand -13.503827 -0.000000 2.020283
RightHandThumb1 -24.326973 -0.000000 -32.862282
LeftUpLeg -24.047408 13.447782 -8.851647
LeftLeg -2.746052 -0.000000 0.000000
LeftFoot -24.748522 15.040999 -23.086706
LeftToeBase 35.024412 -0.000000 -0.000000
RightUpLeg 14.274160 -7.604009 -10.101045
RightLeg 92.350811 -0.000000 -0.000000
RightFoot 34.954100 -42.725739 -13.691832
RightToeBase 23.471291 -0.000000 -0.000000
1571
root 17.069415 36.336445 -21.506325 -152.680517 4.791477 -172.687061
Spine -36.549636 13.669428 -0.373454
Head 7.413763 -5.938078 -0.487332
LeftShoulder -15.831419 -26.667972 15.260220
LeftArm -13.557577 -8.649357 -9.832777
LeftForeArm -1.017693 -0.000000 8.621935
LeftHand -7.023166 -0.000000 4.535040
LeftHandThumb1 -26.253704 0.000000 33.147579
RightShoulder -13.251908 -7.788090 -3.728100
RightArm -5.556489 51.418489 23.380620
RightForeArm -29.475531 0.000000 35.167912
RightHand -13.618805 -0.000000 2.160333
RightHandThumb1 -24.326973 -0.000000 -32.862282
LeftUpLeg -24.007883 13.610720 -8.826492
LeftLeg -2.976452 -0.000000 0.000000
LeftFoot -24.620078 14.831266 -23.175697
LeftToeBase 35.307475 -0.000000 -0.000000
RightUpLeg 14.335548 -7.572566 -10.100252
RightLeg 92.425043 -0.000000 -0.000000
RightFoot 34.999443 -42.825499 -13.749677
RightToeBase 23.559216 -0.000000 -0.000000
